<?xml version="1.0" encoding="UTF-8" standalone="no"?>
<svg
   width="16"
   height="16"
   viewBox="0 0 16 16"
   version="1.1"
   id="svg7"
   sodipodi:docname="help-about.svg"
   inkscape:version="1.1.2 (0a00cf5339, 2022-02-04)"
   xmlns:inkscape="http://www.inkscape.org/namespaces/inkscape"
   xmlns:sodipodi="http://sodipodi.sourceforge.net/DTD/sodipodi-0.dtd"
   xmlns="http://www.w3.org/2000/svg"
   xmlns:svg="http://www.w3.org/2000/svg">
  <sodipodi:namedview
     id="namedview9"
     pagecolor="#ffffff"
     bordercolor="#666666"
     borderopacity="1.0"
     inkscape:pageshadow="2"
     inkscape:pageopacity="0.0"
     inkscape:pagecheckerboard="0"
     showgrid="false"
     inkscape:zoom="42.625"
     inkscape:cx="8"
     inkscape:cy="7.9882698"
     inkscape:window-width="1920"
     inkscape:window-height="1031"
     inkscape:window-x="0"
     inkscape:window-y="25"
     inkscape:window-maximized="1"
     inkscape:current-layer="svg7" />
  <defs
     id="defs3">
    <style
       id="current-color-scheme"
       type="text/css">
   .ColorScheme-Text { color:#aaaaaa; } .ColorScheme-Highlight { color:#5294e2; }
  </style>
  </defs>
  <path
     style="fill:#90ebcd;fill-opacity:1"
     class="ColorScheme-Text"
     d="M 8 1.0039062 C 4.134 1.0039062 1 4.1380063 1 8.0039062 C 1 11.869906 4.134 15.003906 8 15.003906 C 11.866 15.003906 15 11.869906 15 8.0039062 C 15 4.1380063 11.866 1.0039062 8 1.0039062 z M 8 3.7539062 C 8.69036 3.7539062 9.25 4.3135463 9.25 5.0039062 C 9.25 5.6942662 8.69036 6.2539062 8 6.2539062 C 7.30964 6.2539062 6.75 5.6942662 6.75 5.0039062 C 6.75 4.3135463 7.30964 3.7539062 8 3.7539062 z M 7 7.0039062 L 9 7.0039062 L 9 12.003906 L 7 12.003906 L 7 7.0039062 z"
     id="path5" />
</svg>
